<svg width="48" height="68" viewBox="0 0 48 68" fill="none" xmlns="http://www.w3.org/2000/svg">
<g filter="url(#filter0_d_5_253)">
<path fill-rule="evenodd" clip-rule="evenodd" d="M11.1838 6.85448C13.1828 4.46283 16.7002 2 21.5495 2C23.8848 2 25.6485 2.60858 25.6744 2.61757L25.6831 2.61374V2.61385C29.0299 3.69294 31.8946 5.95837 33.6273 9.29896L33.6247 9.30208C33.6548 9.35358 35.1549 11.9372 35.1549 15.6459C35.1549 19.6509 33.6028 22.5187 33.6028 22.5187C32.5211 24.7549 30.3077 27.5033 29.4225 28.6025L29.4225 28.6025L29.4224 28.6025L29.4224 28.6026L29.4221 28.6029L29.4214 28.6039C29.2738 28.7872 29.1632 28.9245 29.1011 29.0057C28.4361 29.8384 27.7662 30.6851 27.1162 31.5586C31.165 33.1533 33.946 36.4554 33.946 40.2703C33.946 45.6439 28.4282 50 21.6216 50C14.8151 50 9.29731 45.6439 9.29731 40.2703C9.29731 36.4766 12.0474 33.1901 16.0596 31.5854C15.8718 31.334 15.681 31.0848 15.4872 30.8378L15.4881 30.833C14.9772 30.1434 14.4008 29.428 13.8029 28.6858C12.1804 26.672 10.3994 24.4613 9.33781 22.0366C9.33781 22.0366 8 19.4167 8 15.6214C8 12.0343 9.39445 8.89874 11.1838 6.85448ZM17.5794 33.7714C14.002 34.9807 11.8919 37.7183 11.8919 40.2703C11.8919 43.6728 15.6429 47.4054 21.6216 47.4054C27.6004 47.4054 31.3514 43.6728 31.3514 40.2703C31.3514 37.6999 29.2107 34.9411 25.5861 33.7455C25.2263 34.2993 24.8809 34.8664 24.555 35.4497C23.8861 36.6667 23.4621 37.9547 22.9218 39.6423C22.6616 40.4176 22.3248 40.9189 21.5825 40.9189C20.9013 40.9189 20.5844 40.6242 20.2339 39.6369C19.6622 37.8499 19.3361 36.8442 18.554 35.3611C18.2416 34.8234 17.9167 34.2934 17.5794 33.7714ZM17.5789 12.2361L17.582 12.2387L17.5551 12.2707C17.3802 12.4844 16.3896 13.7749 16.3896 15.5809C16.3896 18.4693 18.707 20.76 21.5756 20.76C23.5458 20.76 24.8397 19.6732 25.3389 19.1625L25.5705 18.8987L25.6655 18.7798C25.9449 18.4076 26.7653 17.1758 26.7653 15.5426C26.7653 12.5869 24.2764 10.3789 21.5878 10.3789C19.0453 10.3789 17.5851 12.2325 17.5851 12.2325V12.2288L17.5789 12.2361Z" fill="#F44900"/>
</g>
<defs>
<filter id="filter0_d_5_253" x="0" y="0" width="47.1549" height="68" filterUnits="userSpaceOnUse" color-interpolation-filters="sRGB">
<feFlood flood-opacity="0" result="BackgroundImageFix"/>
<feColorMatrix in="SourceAlpha" type="matrix" values="0 0 0 0 0 0 0 0 0 0 0 0 0 0 0 0 0 0 127 0" result="hardAlpha"/>
<feOffset dx="2" dy="8"/>
<feGaussianBlur stdDeviation="5"/>
<feComposite in2="hardAlpha" operator="out"/>
<feColorMatrix type="matrix" values="0 0 0 0 0.956863 0 0 0 0 0.286275 0 0 0 0 0 0 0 0 0.25 0"/>
<feBlend mode="normal" in2="BackgroundImageFix" result="effect1_dropShadow_5_253"/>
<feBlend mode="normal" in="SourceGraphic" in2="effect1_dropShadow_5_253" result="shape"/>
</filter>
</defs>
</svg>
