<svg width="64" height="64" viewBox="0 0 64 64" fill="none" xmlns="http://www.w3.org/2000/svg">
<rect width="64" height="64" rx="32" fill="url(#paint0_linear_10_594)"/>
<path fill-rule="evenodd" clip-rule="evenodd" d="M48.9708 19.7529C49.4707 20.253 49.7515 20.9311 49.7515 21.6382C49.7515 22.3453 49.4707 23.0235 48.9708 23.5236L28.9832 43.5111C28.7191 43.7753 28.4055 43.9849 28.0603 44.1279C27.7152 44.2709 27.3452 44.3445 26.9717 44.3445C26.5981 44.3445 26.2281 44.2709 25.883 44.1279C25.5378 43.9849 25.2242 43.7753 24.9601 43.5111L15.0294 33.5822C14.7747 33.3362 14.5716 33.042 14.4318 32.7166C14.2921 32.3913 14.2185 32.0414 14.2154 31.6873C14.2124 31.3332 14.2798 30.9821 14.4139 30.6543C14.548 30.3266 14.746 30.0289 14.9964 29.7785C15.2468 29.5281 15.5445 29.3301 15.8722 29.196C16.1999 29.0619 16.5511 28.9945 16.9052 28.9976C17.2592 29.0006 17.6092 29.0742 17.9345 29.2139C18.2599 29.3537 18.5541 29.5569 18.8001 29.8116L26.9708 37.9822L45.1983 19.7529C45.446 19.5051 45.74 19.3085 46.0637 19.1744C46.3873 19.0403 46.7342 18.9712 47.0845 18.9712C47.4349 18.9712 47.7818 19.0403 48.1054 19.1744C48.4291 19.3085 48.7231 19.5051 48.9708 19.7529Z" fill="white"/>
<defs>
<linearGradient id="paint0_linear_10_594" x1="10.875" y1="6.01794" x2="58.2738" y2="93.7151" gradientUnits="userSpaceOnUse">
<stop stop-color="#35C9EA"/>
<stop offset="1" stop-color="#37D7C4"/>
</linearGradient>
</defs>
</svg>
