<svg width="65" height="40" viewBox="0 0 65 40" fill="none" xmlns="http://www.w3.org/2000/svg">
<path d="M6.60918 20.6818V35.4412H3.48867V20.6818H6.60918ZM8.61445 23.2546V20.6818H20.7361V23.2546H16.2175V35.4412H13.1331V23.2546H8.61445ZM23.4729 35.4412H20.129L25.2241 20.6818H29.2455L34.3334 35.4412H30.9895L27.2925 24.0545H27.1772L23.4729 35.4412ZM23.2639 29.6398H31.1625V32.0756H23.2639V29.6398ZM35.9946 35.4412V33.6107L41.414 26.9012V26.8219H36.1819V24.3716H45.1111V26.3679L40.0231 32.9116V32.9909H45.2984V35.4412H35.9946ZM54.7447 30.728V24.3716H57.8147V35.4412H54.8672V33.4305H54.7519C54.502 34.0791 54.0864 34.6004 53.5051 34.9943C52.9286 35.3883 52.2247 35.5853 51.3935 35.5853C50.6536 35.5853 50.0026 35.4171 49.4405 35.0808C48.8784 34.7445 48.4388 34.2665 48.1217 33.6467C47.8094 33.0269 47.6508 32.2846 47.646 31.4198V24.3716H50.7161V30.8721C50.7209 31.5255 50.8963 32.042 51.2422 32.4215C51.5881 32.8011 52.0517 32.9909 52.6331 32.9909C53.003 32.9909 53.3489 32.9068 53.6708 32.7386C53.9927 32.5657 54.2522 32.311 54.4492 31.9747C54.651 31.6384 54.7495 31.2228 54.7447 30.728ZM63.3405 20.6818V35.4412H60.2704V20.6818H63.3405Z" fill="#333333"/>
<path d="M44.9614 0.00892995C41.5358 -0.0412965 36.7772 0.032134 35.7975 2.66036L33.3904 8.30099C33.2836 8.17903 33.1436 8.09074 32.9874 8.04693L32.0183 7.77464C31.9117 7.74447 31.8003 7.73561 31.6903 7.74857C31.5803 7.76154 31.4739 7.79607 31.3773 7.85018C31.2807 7.9043 31.1957 7.97694 31.1273 8.06393C31.0589 8.15092 31.0083 8.25055 30.9786 8.3571L30.473 10.15C30.4428 10.2564 30.434 10.3677 30.447 10.4775C30.46 10.5873 30.4946 10.6935 30.5488 10.7899C30.6029 10.8864 30.6757 10.9712 30.7628 11.0395C30.8498 11.1078 30.9496 11.1583 31.0562 11.188L32.0257 11.4606C32.058 11.4694 32.0904 11.4723 32.1227 11.4776C31.9374 11.9387 31.8221 12.4457 31.8221 12.7474V19.3032C31.8221 19.6392 31.9633 19.7949 32.1874 19.8678V21.6142C32.1871 21.7693 32.2174 21.9229 32.2767 22.0662C32.3359 22.2095 32.4229 22.3397 32.5327 22.4493C32.6425 22.5589 32.7729 22.6458 32.9164 22.705C33.0599 22.7642 33.2137 22.7945 33.3689 22.7941H36.5387C36.6939 22.7945 36.8477 22.7642 36.9912 22.705C37.1347 22.6458 37.2651 22.5589 37.3749 22.4493C37.4847 22.3397 37.5717 22.2095 37.6309 22.0662C37.6902 21.9229 37.7205 21.7693 37.7202 21.6142V19.9318H52.5742V21.6142C52.5739 21.7693 52.6043 21.9229 52.6636 22.0661C52.7229 22.2094 52.81 22.3396 52.9198 22.4492C53.0296 22.5589 53.1599 22.6458 53.3034 22.7049C53.4469 22.7641 53.6007 22.7944 53.756 22.7941H56.9252C57.0804 22.7945 57.2343 22.7642 57.3778 22.705C57.5213 22.6459 57.6518 22.559 57.7616 22.4494C57.8714 22.3397 57.9585 22.2095 58.0178 22.0662C58.0771 21.9229 58.1075 21.7693 58.1072 21.6142V19.8681C58.3316 19.7952 58.4719 19.6395 58.4719 19.3035V12.7477C58.4719 12.446 58.3563 11.939 58.1713 11.4779C58.2037 11.4729 58.2361 11.47 58.2684 11.4609L59.2381 11.1883C59.3448 11.1585 59.4445 11.108 59.5315 11.0397C59.6186 10.9714 59.6913 10.8866 59.7454 10.7901C59.7996 10.6937 59.8341 10.5875 59.8471 10.4777C59.8601 10.3679 59.8513 10.2566 59.8211 10.1503L59.3161 8.35739C59.2863 8.25083 59.2357 8.1512 59.1672 8.0642C59.0988 7.97721 59.0138 7.90457 58.9172 7.85046C58.8206 7.79634 58.7142 7.76181 58.6042 7.74885C58.4941 7.7359 58.3826 7.74476 58.2761 7.77494L57.3069 8.04722C57.1508 8.09122 57.0107 8.17947 56.9037 8.30129L54.4966 2.66065C53.4466 -0.00751801 48.3868 0.0594502 44.9611 0.00922379L44.9614 0.00892995ZM54.7725 8.65728C54.8295 8.82646 54.6589 8.93925 54.4804 8.94953C54.4804 8.94953 53.8969 8.99888 53.0922 9.06379C52.4798 7.63513 51.0568 6.62825 49.4083 6.62825C47.5991 6.62825 46.0632 7.84132 45.5706 9.49321C45.4341 9.49497 45.2756 9.50085 45.1488 9.50085C42.032 9.50085 35.8137 8.94953 35.8137 8.94953C35.6354 8.93896 35.4645 8.82617 35.5216 8.65728C37.9163 1.36681 37.9878 1.91489 45.0147 1.99155C52.0413 2.06792 52.0821 1.54715 54.7725 8.65728ZM49.4083 8.0061C49.8421 8.0046 50.2695 8.11097 50.6519 8.31562C51.0343 8.52027 51.3596 8.81676 51.5986 9.17834C50.1912 9.28261 48.5715 9.38923 47.0621 9.45121C47.2793 9.01578 47.6141 8.6497 48.0287 8.39433C48.4433 8.13896 48.9212 8.00448 49.4083 8.0061ZM33.2077 10.372C33.2289 10.4035 33.2495 10.4349 33.273 10.4651H33.1819L33.2077 10.372ZM34.7648 12.2031C35.3813 12.1931 38.6908 13.3054 38.6908 13.3054C39.104 13.4217 39.4678 14.2019 39.4658 14.6307C39.4596 16.0749 35.7278 15.5735 34.2128 15.5794C34.1109 15.5796 34.0101 15.5597 33.916 15.5209C33.8219 15.4821 33.7364 15.4251 33.6644 15.3533C33.5924 15.2814 33.5353 15.196 33.4964 15.1021C33.4575 15.0081 33.4376 14.9074 33.4377 14.8058V12.9773C33.4377 12.5485 34.1483 12.2137 34.7648 12.2031ZM55.5293 12.2031C56.1457 12.2134 56.8563 12.5485 56.8563 12.9773V14.8058C56.8565 14.9075 56.8366 15.0082 56.7977 15.1022C56.7588 15.1962 56.7018 15.2816 56.6298 15.3535C56.5578 15.4254 56.4722 15.4824 56.3781 15.5212C56.284 15.56 56.1831 15.5799 56.0813 15.5797C54.5666 15.5738 50.8345 16.0749 50.8283 14.6307C50.8262 14.2019 51.1901 13.4217 51.6033 13.3054C51.6033 13.3054 54.9128 12.1931 55.5293 12.2031Z" fill="white"/>
<path d="M2.7698 15.374C3.18631 15.9048 3.56538 16.4639 3.90428 17.0473C4.19365 17.596 4.31427 17.968 4.52574 18.6291C4.65543 18.9944 4.77264 19.1034 5.02464 19.1034C5.29925 19.1034 5.42384 18.9179 5.5201 18.6311C5.71999 18.0068 5.87683 17.5303 6.12428 17.0801C6.60985 16.2109 7.21321 15.4386 7.80606 14.6963C7.96655 14.4862 9.00423 13.2622 9.47139 12.2965C9.47139 12.2965 10.0456 11.2356 10.0456 9.75398C10.0456 8.36808 9.47932 7.40688 9.47932 7.40688L7.84907 7.84347L6.85903 10.4511L6.61409 10.8106L6.56511 10.8758L6.49997 10.9573L6.38563 11.0875L6.22223 11.2509L5.34061 11.9692L3.13646 13.2418L2.7698 15.374Z" fill="white"/>
<path d="M0.494903 12.1181C1.03285 13.3469 2.07022 14.427 2.77208 15.3749L6.49997 10.959C6.49997 10.959 5.97478 11.6459 5.02209 11.6459C3.96091 11.6459 3.10362 10.7984 3.10362 9.72993C3.10362 8.99719 3.54445 8.49381 3.54445 8.49381L1.01386 9.17189L0.494903 12.1181Z" fill="white"/>
<path d="M6.54161 4.93296C7.77973 5.33215 8.83946 6.17021 9.48046 7.40602L6.50111 10.9564C6.50111 10.9564 6.94194 10.4439 6.94194 9.71576C6.94194 8.62236 6.02124 7.80553 5.02661 7.80553C4.08605 7.80553 3.54586 8.49126 3.54586 8.49126V6.25454L6.54161 4.93292V4.93296Z" fill="white"/>
<path d="M1.17781 6.50172C1.9173 5.61696 3.21852 4.70587 5.01244 4.70587C5.8828 4.70587 6.53851 4.93437 6.53851 4.93437L3.54304 8.49322H1.42071L1.17781 6.50172Z" fill="white"/>
<path d="M0.494903 12.1181C0.494903 12.1181 0 11.1489 0 9.74492C0 8.41792 0.515857 7.25796 1.17781 6.50172L3.54472 8.49353L0.494903 12.1181Z" fill="white"/>
</svg>
