<svg xmlns="http://www.w3.org/2000/svg" width="150" height="93" viewBox="0 0 150 93" fill="none">
<path d="M15.3213 47.5806V81.7955H8.08739V47.5806H15.3213ZM19.9699 53.5448V47.5806H48.0702V53.5448H37.5952V81.7955H30.4448V53.5448H19.9699ZM54.4145 81.7955H46.6627L58.4741 47.5806H67.7964L79.5911 81.7955H71.8393L63.2689 55.3992H63.0016L54.4145 81.7955ZM53.93 68.3467H72.2403V73.9935H53.93V68.3467ZM83.442 81.7955V77.552L96.0053 61.9983V61.8145H83.8764V56.1343H104.576V60.762L92.7809 75.9315V76.1153H105.01V81.7955H83.442ZM126.908 70.8694V56.1343H134.025V81.7955H127.192V77.1343H126.925C126.346 78.6379 125.382 79.8464 124.035 80.7597C122.698 81.6729 121.066 82.1296 119.14 82.1296C117.424 82.1296 115.915 81.7398 114.612 80.9601C113.309 80.1805 112.29 79.0723 111.555 77.6355C110.831 76.1988 110.463 74.478 110.452 72.4732V56.1343H117.569V71.2035C117.58 72.7183 117.987 73.9156 118.789 74.7954C119.591 75.6753 120.665 76.1153 122.013 76.1153C122.871 76.1153 123.673 75.9203 124.419 75.5305C125.165 75.1296 125.766 74.5393 126.223 73.7596C126.691 72.98 126.919 72.0166 126.908 70.8694ZM146.835 47.5806V81.7955H139.718V47.5806H146.835Z" fill="white"/>
<path d="M104.229 0.0207012C96.2876 -0.0957328 85.2563 0.0744924 82.9851 6.16719L77.405 19.2432C77.1575 18.9605 76.8329 18.7558 76.4709 18.6542L74.2243 18.023C73.9773 17.9531 73.7188 17.9325 73.4638 17.9626C73.2088 17.9926 72.9622 18.0727 72.7383 18.1982C72.5144 18.3236 72.3174 18.492 72.1588 18.6937C72.0002 18.8953 71.883 19.1263 71.814 19.3733L70.642 23.5295C70.572 23.7761 70.5515 24.0342 70.5817 24.2887C70.6118 24.5433 70.692 24.7895 70.8176 25.013C70.9432 25.2366 71.1118 25.4332 71.3137 25.5915C71.5156 25.7499 71.7468 25.8669 71.994 25.9358L74.2413 26.5677C74.3163 26.5881 74.3913 26.5949 74.4663 26.6072C74.0368 27.6762 73.7695 28.8514 73.7695 29.5507V44.7484C73.7695 45.5273 74.0968 45.8882 74.6163 46.0571V50.1057C74.6155 50.4651 74.6858 50.8212 74.8232 51.1534C74.9605 51.4856 75.1623 51.7874 75.4167 52.0416C75.6712 52.2957 75.9735 52.4972 76.3062 52.6343C76.6388 52.7715 76.9953 52.8417 77.3552 52.8409H84.7033C85.0632 52.8417 85.4197 52.7715 85.7524 52.6343C86.0851 52.4972 86.3873 52.2957 86.6418 52.0416C86.8963 51.7874 87.098 51.4856 87.2354 51.1534C87.3727 50.8212 87.443 50.4651 87.4422 50.1057V46.2055H121.877V50.1057C121.876 50.4651 121.946 50.8212 122.084 51.1533C122.221 51.4855 122.423 51.7873 122.678 52.0414C122.932 52.2956 123.234 52.497 123.567 52.6342C123.9 52.7714 124.256 52.8416 124.616 52.8409H131.963C132.323 52.8417 132.679 52.7715 133.012 52.6344C133.345 52.4972 133.647 52.2958 133.902 52.0417C134.156 51.7875 134.358 51.4857 134.496 51.1535C134.633 50.8213 134.704 50.4652 134.703 50.1057V46.0578C135.223 45.8889 135.549 45.528 135.549 44.7491V29.5514C135.549 28.8521 135.281 27.6769 134.852 26.6078C134.927 26.5963 135.002 26.5895 135.077 26.5683L137.325 25.9365C137.572 25.8675 137.803 25.7504 138.005 25.5921C138.207 25.4337 138.375 25.2371 138.501 25.0135C138.626 24.79 138.706 24.5438 138.737 24.2893C138.767 24.0348 138.746 23.7768 138.676 23.5302L137.505 19.3739C137.436 19.1269 137.319 18.896 137.16 18.6943C137.002 18.4926 136.805 18.3242 136.581 18.1988C136.357 18.0733 136.11 17.9933 135.855 17.9633C135.6 17.9332 135.342 17.9538 135.095 18.0237L132.848 18.6549C132.486 18.7569 132.161 18.9615 131.913 19.2439L126.333 6.16787C123.899 -0.0174281 112.169 0.137816 104.228 0.0213824L104.229 0.0207012ZM126.973 20.0691C127.105 20.4613 126.709 20.7228 126.296 20.7466C126.296 20.7466 124.943 20.861 123.077 21.0115C121.658 17.6996 118.359 15.3655 114.537 15.3655C110.343 15.3655 106.783 18.1776 105.641 22.007C105.325 22.0111 104.957 22.0247 104.663 22.0247C97.4378 22.0247 83.0226 20.7466 83.0226 20.7466C82.6094 20.7221 82.2133 20.4607 82.3455 20.0691C87.897 3.16851 88.0627 4.43907 104.352 4.61678C120.641 4.79382 120.736 3.58658 126.973 20.0691ZM114.537 18.5596C115.543 18.5561 116.534 18.8027 117.42 19.2771C118.307 19.7515 119.061 20.4388 119.615 21.2771C116.352 21.5188 112.598 21.7659 109.098 21.9096C109.602 20.9002 110.378 20.0516 111.339 19.4596C112.3 18.8676 113.408 18.5558 114.537 18.5596ZM76.9816 24.0442C77.0307 24.1171 77.0784 24.19 77.133 24.2601H76.9216L76.9816 24.0442ZM80.5912 28.289C82.0203 28.2658 89.6922 30.8444 89.6922 30.8444C90.6502 31.114 91.4936 32.9225 91.4889 33.9166C91.4745 37.2646 82.8235 36.1023 79.3114 36.1159C79.0754 36.1164 78.8416 36.0703 78.6235 35.9803C78.4054 35.8904 78.2072 35.7583 78.0403 35.5917C77.8733 35.4251 77.741 35.2272 77.6508 35.0094C77.5607 34.7916 77.5144 34.5581 77.5148 34.3224V30.0838C77.5148 29.0897 79.1621 28.3135 80.5912 28.289ZM128.727 28.289C130.156 28.3128 131.803 29.0897 131.803 30.0838V34.3224C131.804 34.5582 131.758 34.7917 131.667 35.0096C131.577 35.2275 131.445 35.4254 131.278 35.5921C131.111 35.7588 130.913 35.8909 130.695 35.981C130.477 36.071 130.243 36.1171 130.007 36.1166C126.495 36.103 117.844 37.2646 117.829 33.9166C117.824 32.9225 118.668 31.114 119.626 30.8444C119.626 30.8444 127.298 28.2658 128.727 28.289Z" fill="url(#paint0_linear_5_111)"/>
<path d="M6.4209 35.6398C7.38644 36.8703 8.26521 38.1664 9.05084 39.5188C9.72163 40.7907 10.0013 41.6532 10.4915 43.1857C10.7921 44.0324 11.0638 44.2851 11.648 44.2851C12.2846 44.2851 12.5734 43.8552 12.7966 43.1903C13.26 41.743 13.6236 40.6385 14.1972 39.5949C15.3228 37.5799 16.7215 35.7894 18.0959 34.0686C18.4679 33.5816 20.8734 30.7442 21.9564 28.5055C21.9564 28.5055 23.2874 26.0462 23.2874 22.6115C23.2874 19.3988 21.9748 17.1705 21.9748 17.1705L18.1956 18.1826L15.9005 24.2275L15.3327 25.061L15.2191 25.212L15.0681 25.401L14.803 25.7029L14.4243 26.0816L12.3805 27.7467L7.27089 30.6969L6.4209 35.6398Z" fill="url(#paint1_linear_5_111)"/>
<path d="M1.14727 28.092C2.39434 30.9405 4.79914 33.4444 6.42617 35.6418L15.0681 25.4049C15.0681 25.4049 13.8506 26.9972 11.6421 26.9972C9.18211 26.9972 7.19475 25.0328 7.19475 22.5558C7.19475 20.8571 8.21668 19.6902 8.21668 19.6902L2.35031 21.2621L1.14727 28.092Z" fill="url(#paint2_linear_5_111)"/>
<path d="M15.1646 11.4355C18.0348 12.3609 20.4915 14.3037 21.9774 17.1685L15.0708 25.399C15.0708 25.399 16.0927 24.211 16.0927 22.5229C16.0927 19.9882 13.9583 18.0947 11.6526 18.0947C9.4722 18.0947 8.21995 19.6843 8.21995 19.6843V14.4992L15.1646 11.4354V11.4355Z" fill="url(#paint3_linear_5_111)"/>
<path d="M2.73037 15.0722C4.44464 13.0212 7.4611 10.9091 11.6197 10.9091C13.6374 10.9091 15.1575 11.4388 15.1575 11.4388L8.2134 19.6888H3.29346L2.73037 15.0722Z" fill="url(#paint4_linear_5_111)"/>
<path d="M1.14727 28.092C1.14727 28.092 0 25.8453 0 22.5905C0 19.5143 1.19585 16.8253 2.73037 15.0722L8.21731 19.6896L1.14727 28.092Z" fill="url(#paint5_linear_5_111)"/>
<defs>
<linearGradient id="paint0_linear_5_111" x1="28.7734" y1="-76.6013" x2="43.1137" y2="61.7827" gradientUnits="userSpaceOnUse">
<stop stop-color="#35C9EA"/>
<stop offset="1" stop-color="#37D7C4"/>
</linearGradient>
<linearGradient id="paint1_linear_5_111" x1="3.95706" y1="14.0474" x2="32.5662" y2="50.98" gradientUnits="userSpaceOnUse">
<stop stop-color="#35C9EA"/>
<stop offset="1" stop-color="#37D7C4"/>
</linearGradient>
<linearGradient id="paint2_linear_5_111" x1="3.95706" y1="14.0474" x2="32.5662" y2="50.98" gradientUnits="userSpaceOnUse">
<stop stop-color="#35C9EA"/>
<stop offset="1" stop-color="#37D7C4"/>
</linearGradient>
<linearGradient id="paint3_linear_5_111" x1="3.95706" y1="14.0474" x2="32.5662" y2="50.98" gradientUnits="userSpaceOnUse">
<stop stop-color="#35C9EA"/>
<stop offset="1" stop-color="#37D7C4"/>
</linearGradient>
<linearGradient id="paint4_linear_5_111" x1="3.95706" y1="14.0474" x2="32.5662" y2="50.98" gradientUnits="userSpaceOnUse">
<stop stop-color="#35C9EA"/>
<stop offset="1" stop-color="#37D7C4"/>
</linearGradient>
<linearGradient id="paint5_linear_5_111" x1="3.95706" y1="14.0474" x2="32.5662" y2="50.98" gradientUnits="userSpaceOnUse">
<stop stop-color="#35C9EA"/>
<stop offset="1" stop-color="#37D7C4"/>
</linearGradient>
</defs>
</svg>